<svg xmlns="http://www.w3.org/2000/svg" version="1.1" xmlns:xlink="http://www.w3.org/1999/xlink" xmlns:svgjs="http://svgjs.dev/svgjs" width="1440" height="560" preserveAspectRatio="none" viewBox="0 0 1440 560"><g mask="url(&quot;#SvgjsMask1002&quot;)" fill="none"><path d="M-69.75 355.66L-69.75 355.66" stroke="#132e65" stroke-width="1.5"></path><path d="M-69.75 355.66L101.94 399.18" stroke="#132e65" stroke-width="1.5"></path><path d="M-69.75 355.66L-43.37 673.04" stroke="#132e65" stroke-width="1.5"></path><path d="M-69.75 355.66L246.84 396.1" stroke="#132e65" stroke-width="1.5"></path><path d="M-69.75 355.66L206.93 531.13" stroke="#132e65" stroke-width="1.5"></path><path d="M-69.75 355.66L109.18 693.15" stroke="#132e65" stroke-width="1.5"></path><path d="M-43.37 673.04L-43.37 673.04" stroke="#132e65" stroke-width="1.5"></path><path d="M-43.37 673.04L109.18 693.15" stroke="#132e65" stroke-width="1.5"></path><path d="M-43.37 673.04L221.58 641.46" stroke="#132e65" stroke-width="1.5"></path><path d="M-43.37 673.04L206.93 531.13" stroke="#132e65" stroke-width="1.5"></path><path d="M-43.37 673.04L101.94 399.18" stroke="#132e65" stroke-width="1.5"></path><path d="M-43.37 673.04L343.32 663.73" stroke="#132e65" stroke-width="1.5"></path><path d="M101.94 399.18L101.94 399.18" stroke="#132e65" stroke-width="1.5"></path><path d="M101.94 399.18L246.84 396.1" stroke="#132e65" stroke-width="1.5"></path><path d="M101.94 399.18L206.93 531.13" stroke="#132e65" stroke-width="1.5"></path><path d="M101.94 399.18L221.58 641.46" stroke="#132e65" stroke-width="1.5"></path><path d="M101.94 399.18L386.47 411.7" stroke="#132e65" stroke-width="1.5"></path><path d="M109.18 693.15L109.18 693.15" stroke="#132e65" stroke-width="1.5"></path><path d="M109.18 693.15L221.58 641.46" stroke="#132e65" stroke-width="1.5"></path><path d="M109.18 693.15L206.93 531.13" stroke="#132e65" stroke-width="1.5"></path><path d="M109.18 693.15L343.32 663.73" stroke="#132e65" stroke-width="1.5"></path><path d="M109.18 693.15L101.94 399.18" stroke="#132e65" stroke-width="1.5"></path><path d="M246.84 396.1L246.84 396.1" stroke="#132e65" stroke-width="1.5"></path><path d="M246.84 396.1L386.47 411.7" stroke="#132e65" stroke-width="1.5"></path><path d="M246.84 396.1L206.93 531.13" stroke="#132e65" stroke-width="1.5"></path><path d="M246.84 396.1L385.54 559.23" stroke="#132e65" stroke-width="1.5"></path><path d="M246.84 396.1L221.58 641.46" stroke="#132e65" stroke-width="1.5"></path><path d="M246.84 396.1L343.32 663.73" stroke="#132e65" stroke-width="1.5"></path><path d="M206.93 531.13L206.93 531.13" stroke="#132e65" stroke-width="1.5"></path><path d="M206.93 531.13L221.58 641.46" stroke="#132e65" stroke-width="1.5"></path><path d="M206.93 531.13L385.54 559.23" stroke="#132e65" stroke-width="1.5"></path><path d="M206.93 531.13L343.32 663.73" stroke="#132e65" stroke-width="1.5"></path><path d="M221.58 641.46L221.58 641.46" stroke="#132e65" stroke-width="1.5"></path><path d="M221.58 641.46L343.32 663.73" stroke="#132e65" stroke-width="1.5"></path><path d="M221.58 641.46L385.54 559.23" stroke="#132e65" stroke-width="1.5"></path><path d="M386.47 411.7L386.47 411.7" stroke="#132e65" stroke-width="1.5"></path><path d="M386.47 411.7L385.54 559.23" stroke="#132e65" stroke-width="1.5"></path><path d="M386.47 411.7L543.35 360.37" stroke="#132e65" stroke-width="1.5"></path><path d="M386.47 411.7L206.93 531.13" stroke="#132e65" stroke-width="1.5"></path><path d="M385.54 559.23L385.54 559.23" stroke="#132e65" stroke-width="1.5"></path><path d="M385.54 559.23L343.32 663.73" stroke="#132e65" stroke-width="1.5"></path><path d="M385.54 559.23L505.47 656.58" stroke="#132e65" stroke-width="1.5"></path><path d="M343.32 663.73L343.32 663.73" stroke="#132e65" stroke-width="1.5"></path><path d="M343.32 663.73L505.47 656.58" stroke="#132e65" stroke-width="1.5"></path><path d="M543.35 360.37L543.35 360.37" stroke="#132e65" stroke-width="1.5"></path><path d="M543.35 360.37L695.51 382.16" stroke="#132e65" stroke-width="1.5"></path><path d="M505.47 656.58L505.47 656.58" stroke="#132e65" stroke-width="1.5"></path><path d="M505.47 656.58L642.5 662.29" stroke="#132e65" stroke-width="1.5"></path><path d="M505.47 656.58L669.32 542.58" stroke="#132e65" stroke-width="1.5"></path><path d="M505.47 656.58L386.47 411.7" stroke="#132e65" stroke-width="1.5"></path><path d="M701.93 255.23L701.93 255.23" stroke="#132e65" stroke-width="1.5"></path><path d="M701.93 255.23L695.51 382.16" stroke="#132e65" stroke-width="1.5"></path><path d="M701.93 255.23L842.15 238.46" stroke="#132e65" stroke-width="1.5"></path><path d="M701.93 255.23L543.35 360.37" stroke="#132e65" stroke-width="1.5"></path><path d="M701.93 255.23L834.98 489.69" stroke="#132e65" stroke-width="1.5"></path><path d="M695.51 382.16L695.51 382.16" stroke="#132e65" stroke-width="1.5"></path><path d="M669.32 542.58L669.32 542.58" stroke="#132e65" stroke-width="1.5"></path><path d="M669.32 542.58L642.5 662.29" stroke="#132e65" stroke-width="1.5"></path><path d="M669.32 542.58L695.51 382.16" stroke="#132e65" stroke-width="1.5"></path><path d="M669.32 542.58L834.98 489.69" stroke="#132e65" stroke-width="1.5"></path><path d="M669.32 542.58L815.97 664.42" stroke="#132e65" stroke-width="1.5"></path><path d="M642.5 662.29L642.5 662.29" stroke="#132e65" stroke-width="1.5"></path><path d="M642.5 662.29L815.97 664.42" stroke="#132e65" stroke-width="1.5"></path><path d="M642.5 662.29L834.98 489.69" stroke="#132e65" stroke-width="1.5"></path><path d="M642.5 662.29L385.54 559.23" stroke="#132e65" stroke-width="1.5"></path><path d="M642.5 662.29L695.51 382.16" stroke="#132e65" stroke-width="1.5"></path><path d="M842.15 238.46L842.15 238.46" stroke="#132e65" stroke-width="1.5"></path><path d="M842.15 238.46L980.95 221.85" stroke="#132e65" stroke-width="1.5"></path><path d="M842.15 238.46L695.51 382.16" stroke="#132e65" stroke-width="1.5"></path><path d="M842.15 238.46L986.76 89.81" stroke="#132e65" stroke-width="1.5"></path><path d="M842.15 238.46L1005.64 369.55" stroke="#132e65" stroke-width="1.5"></path><path d="M834.98 489.69L834.98 489.69" stroke="#132e65" stroke-width="1.5"></path><path d="M834.98 489.69L815.97 664.42" stroke="#132e65" stroke-width="1.5"></path><path d="M834.98 489.69L695.51 382.16" stroke="#132e65" stroke-width="1.5"></path><path d="M834.98 489.69L946.01 645.22" stroke="#132e65" stroke-width="1.5"></path><path d="M815.97 664.42L815.97 664.42" stroke="#132e65" stroke-width="1.5"></path><path d="M815.97 664.42L946.01 645.22" stroke="#132e65" stroke-width="1.5"></path><path d="M815.97 664.42L1104.86 640.7" stroke="#132e65" stroke-width="1.5"></path><path d="M958.04 -47.49L958.04 -47.49" stroke="#132e65" stroke-width="1.5"></path><path d="M958.04 -47.49L986.76 89.81" stroke="#132e65" stroke-width="1.5"></path><path d="M986.76 89.81L986.76 89.81" stroke="#132e65" stroke-width="1.5"></path><path d="M986.76 89.81L980.95 221.85" stroke="#132e65" stroke-width="1.5"></path><path d="M986.76 89.81L1118.88 49.36" stroke="#132e65" stroke-width="1.5"></path><path d="M980.95 221.85L980.95 221.85" stroke="#132e65" stroke-width="1.5"></path><path d="M980.95 221.85L1005.64 369.55" stroke="#132e65" stroke-width="1.5"></path><path d="M980.95 221.85L1152.06 213.05" stroke="#132e65" stroke-width="1.5"></path><path d="M980.95 221.85L1118.88 49.36" stroke="#132e65" stroke-width="1.5"></path><path d="M980.95 221.85L1142.4 404.8" stroke="#132e65" stroke-width="1.5"></path><path d="M1005.64 369.55L1005.64 369.55" stroke="#132e65" stroke-width="1.5"></path><path d="M1005.64 369.55L1142.4 404.8" stroke="#132e65" stroke-width="1.5"></path><path d="M1005.64 369.55L1152.17 501.48" stroke="#132e65" stroke-width="1.5"></path><path d="M1005.64 369.55L834.98 489.69" stroke="#132e65" stroke-width="1.5"></path><path d="M1005.64 369.55L1152.06 213.05" stroke="#132e65" stroke-width="1.5"></path><path d="M946.01 645.22L946.01 645.22" stroke="#132e65" stroke-width="1.5"></path><path d="M946.01 645.22L1104.86 640.7" stroke="#132e65" stroke-width="1.5"></path><path d="M946.01 645.22L1152.17 501.48" stroke="#132e65" stroke-width="1.5"></path><path d="M946.01 645.22L1005.64 369.55" stroke="#132e65" stroke-width="1.5"></path><path d="M1127.79 -72.53L1127.79 -72.53" stroke="#132e65" stroke-width="1.5"></path><path d="M1127.79 -72.53L1118.88 49.36" stroke="#132e65" stroke-width="1.5"></path><path d="M1127.79 -72.53L1257.13 -40.99" stroke="#132e65" stroke-width="1.5"></path><path d="M1118.88 49.36L1118.88 49.36" stroke="#132e65" stroke-width="1.5"></path><path d="M1118.88 49.36L1268.06 46.9" stroke="#132e65" stroke-width="1.5"></path><path d="M1118.88 49.36L1257.13 -40.99" stroke="#132e65" stroke-width="1.5"></path><path d="M1118.88 49.36L1152.06 213.05" stroke="#132e65" stroke-width="1.5"></path><path d="M1118.88 49.36L958.04 -47.49" stroke="#132e65" stroke-width="1.5"></path><path d="M1152.06 213.05L1152.06 213.05" stroke="#132e65" stroke-width="1.5"></path><path d="M1152.06 213.05L1277.14 259.49" stroke="#132e65" stroke-width="1.5"></path><path d="M1152.06 213.05L1142.4 404.8" stroke="#132e65" stroke-width="1.5"></path><path d="M1142.4 404.8L1142.4 404.8" stroke="#132e65" stroke-width="1.5"></path><path d="M1142.4 404.8L1152.17 501.48" stroke="#132e65" stroke-width="1.5"></path><path d="M1142.4 404.8L1306.56 338.51" stroke="#132e65" stroke-width="1.5"></path><path d="M1142.4 404.8L1278 522.81" stroke="#132e65" stroke-width="1.5"></path><path d="M1152.17 501.48L1152.17 501.48" stroke="#132e65" stroke-width="1.5"></path><path d="M1152.17 501.48L1278 522.81" stroke="#132e65" stroke-width="1.5"></path><path d="M1152.17 501.48L1104.86 640.7" stroke="#132e65" stroke-width="1.5"></path><path d="M1104.86 640.7L1104.86 640.7" stroke="#132e65" stroke-width="1.5"></path><path d="M1257.13 -40.99L1257.13 -40.99" stroke="#132e65" stroke-width="1.5"></path><path d="M1257.13 -40.99L1268.06 46.9" stroke="#132e65" stroke-width="1.5"></path><path d="M1257.13 -40.99L1410.74 -37.78" stroke="#132e65" stroke-width="1.5"></path><path d="M1257.13 -40.99L1418.39 70.9" stroke="#132e65" stroke-width="1.5"></path><path d="M1268.06 46.9L1268.06 46.9" stroke="#132e65" stroke-width="1.5"></path><path d="M1268.06 46.9L1418.39 70.9" stroke="#132e65" stroke-width="1.5"></path><path d="M1268.06 46.9L1410.74 -37.78" stroke="#132e65" stroke-width="1.5"></path><path d="M1268.06 46.9L1127.79 -72.53" stroke="#132e65" stroke-width="1.5"></path><path d="M1277.14 259.49L1277.14 259.49" stroke="#132e65" stroke-width="1.5"></path><path d="M1277.14 259.49L1306.56 338.51" stroke="#132e65" stroke-width="1.5"></path><path d="M1277.14 259.49L1444.93 222.42" stroke="#132e65" stroke-width="1.5"></path><path d="M1277.14 259.49L1405.04 398.82" stroke="#132e65" stroke-width="1.5"></path><path d="M1277.14 259.49L1142.4 404.8" stroke="#132e65" stroke-width="1.5"></path><path d="M1277.14 259.49L1268.06 46.9" stroke="#132e65" stroke-width="1.5"></path><path d="M1306.56 338.51L1306.56 338.51" stroke="#132e65" stroke-width="1.5"></path><path d="M1306.56 338.51L1405.04 398.82" stroke="#132e65" stroke-width="1.5"></path><path d="M1306.56 338.51L1444.93 222.42" stroke="#132e65" stroke-width="1.5"></path><path d="M1306.56 338.51L1278 522.81" stroke="#132e65" stroke-width="1.5"></path><path d="M1278 522.81L1278 522.81" stroke="#132e65" stroke-width="1.5"></path><path d="M1278 522.81L1452.67 548.08" stroke="#132e65" stroke-width="1.5"></path><path d="M1278 522.81L1405.04 398.82" stroke="#132e65" stroke-width="1.5"></path><path d="M1304.49 707.41L1304.49 707.41" stroke="#132e65" stroke-width="1.5"></path><path d="M1304.49 707.41L1399.87 702.94" stroke="#132e65" stroke-width="1.5"></path><path d="M1304.49 707.41L1278 522.81" stroke="#132e65" stroke-width="1.5"></path><path d="M1304.49 707.41L1104.86 640.7" stroke="#132e65" stroke-width="1.5"></path><path d="M1304.49 707.41L1452.67 548.08" stroke="#132e65" stroke-width="1.5"></path><path d="M1304.49 707.41L1152.17 501.48" stroke="#132e65" stroke-width="1.5"></path><path d="M1410.74 -37.78L1410.74 -37.78" stroke="#132e65" stroke-width="1.5"></path><path d="M1410.74 -37.78L1418.39 70.9" stroke="#132e65" stroke-width="1.5"></path><path d="M1410.74 -37.78L1600.48 -64.32" stroke="#132e65" stroke-width="1.5"></path><path d="M1410.74 -37.78L1597.66 46.84" stroke="#132e65" stroke-width="1.5"></path><path d="M1410.74 -37.78L1444.93 222.42" stroke="#132e65" stroke-width="1.5"></path><path d="M1418.39 70.9L1418.39 70.9" stroke="#132e65" stroke-width="1.5"></path><path d="M1418.39 70.9L1444.93 222.42" stroke="#132e65" stroke-width="1.5"></path><path d="M1418.39 70.9L1597.66 46.84" stroke="#132e65" stroke-width="1.5"></path><path d="M1444.93 222.42L1444.93 222.42" stroke="#132e65" stroke-width="1.5"></path><path d="M1444.93 222.42L1581.19 240.43" stroke="#132e65" stroke-width="1.5"></path><path d="M1444.93 222.42L1405.04 398.82" stroke="#132e65" stroke-width="1.5"></path><path d="M1444.93 222.42L1554.57 411.85" stroke="#132e65" stroke-width="1.5"></path><path d="M1405.04 398.82L1405.04 398.82" stroke="#132e65" stroke-width="1.5"></path><path d="M1405.04 398.82L1554.57 411.85" stroke="#132e65" stroke-width="1.5"></path><path d="M1405.04 398.82L1452.67 548.08" stroke="#132e65" stroke-width="1.5"></path><path d="M1452.67 548.08L1452.67 548.08" stroke="#132e65" stroke-width="1.5"></path><path d="M1452.67 548.08L1399.87 702.94" stroke="#132e65" stroke-width="1.5"></path><path d="M1399.87 702.94L1399.87 702.94" stroke="#132e65" stroke-width="1.5"></path><path d="M1600.48 -64.32L1600.48 -64.32" stroke="#132e65" stroke-width="1.5"></path><path d="M1600.48 -64.32L1597.66 46.84" stroke="#132e65" stroke-width="1.5"></path><path d="M1600.48 -64.32L1418.39 70.9" stroke="#132e65" stroke-width="1.5"></path><path d="M1600.48 -64.32L1581.19 240.43" stroke="#132e65" stroke-width="1.5"></path><path d="M1600.48 -64.32L1444.93 222.42" stroke="#132e65" stroke-width="1.5"></path><path d="M1597.66 46.84L1597.66 46.84" stroke="#132e65" stroke-width="1.5"></path><path d="M1597.66 46.84L1581.19 240.43" stroke="#132e65" stroke-width="1.5"></path><path d="M1597.66 46.84L1444.93 222.42" stroke="#132e65" stroke-width="1.5"></path><path d="M1581.19 240.43L1581.19 240.43" stroke="#132e65" stroke-width="1.5"></path><path d="M1581.19 240.43L1554.57 411.85" stroke="#132e65" stroke-width="1.5"></path><path d="M1581.19 240.43L1418.39 70.9" stroke="#132e65" stroke-width="1.5"></path><path d="M1581.19 240.43L1405.04 398.82" stroke="#132e65" stroke-width="1.5"></path><path d="M1554.57 411.85L1554.57 411.85" stroke="#132e65" stroke-width="1.5"></path><path d="M1554.57 411.85L1610.56 498.76" stroke="#132e65" stroke-width="1.5"></path><path d="M1554.57 411.85L1452.67 548.08" stroke="#132e65" stroke-width="1.5"></path><path d="M1610.56 498.76L1610.56 498.76" stroke="#132e65" stroke-width="1.5"></path><path d="M1610.56 498.76L1452.67 548.08" stroke="#132e65" stroke-width="1.5"></path><path d="M1610.56 498.76L1596.58 699.57" stroke="#132e65" stroke-width="1.5"></path><path d="M1610.56 498.76L1405.04 398.82" stroke="#132e65" stroke-width="1.5"></path><path d="M1610.56 498.76L1581.19 240.43" stroke="#132e65" stroke-width="1.5"></path><path d="M1610.56 498.76L1399.87 702.94" stroke="#132e65" stroke-width="1.5"></path><path d="M1596.58 699.57L1596.58 699.57" stroke="#132e65" stroke-width="1.5"></path><path d="M1596.58 699.57L1399.87 702.94" stroke="#132e65" stroke-width="1.5"></path><path d="M1596.58 699.57L1452.67 548.08" stroke="#132e65" stroke-width="1.5"></path><path d="M1596.58 699.57L1554.57 411.85" stroke="#132e65" stroke-width="1.5"></path><path d="M1596.58 699.57L1304.49 707.41" stroke="#132e65" stroke-width="1.5"></path><path d="M1596.58 699.57L1405.04 398.82" stroke="#132e65" stroke-width="1.5"></path><circle r="5" cx="-69.75" cy="355.66" fill="#132e65"></circle><circle r="5" cx="-43.37" cy="673.04" fill="#132e65"></circle><circle r="5" cx="101.94" cy="399.18" fill="#132e65"></circle><circle r="5" cx="109.18" cy="693.15" fill="#132e65"></circle><circle r="5" cx="246.84" cy="396.1" fill="#132e65"></circle><circle r="5" cx="206.93" cy="531.13" fill="#132e65"></circle><circle r="5" cx="221.58" cy="641.46" fill="#132e65"></circle><circle r="5" cx="386.47" cy="411.7" fill="#132e65"></circle><circle r="5" cx="385.54" cy="559.23" fill="#132e65"></circle><circle r="5" cx="343.32" cy="663.73" fill="#132e65"></circle><circle r="5" cx="543.35" cy="360.37" fill="#132e65"></circle><circle r="5" cx="505.47" cy="656.58" fill="#132e65"></circle><circle r="5" cx="701.93" cy="255.23" fill="#132e65"></circle><circle r="5" cx="695.51" cy="382.16" fill="#132e65"></circle><circle r="5" cx="669.32" cy="542.58" fill="#132e65"></circle><circle r="5" cx="642.5" cy="662.29" fill="#132e65"></circle><circle r="5" cx="842.15" cy="238.46" fill="#132e65"></circle><circle r="5" cx="834.98" cy="489.69" fill="#132e65"></circle><circle r="5" cx="815.97" cy="664.42" fill="#132e65"></circle><circle r="5" cx="958.04" cy="-47.49" fill="#132e65"></circle><circle r="5" cx="986.76" cy="89.81" fill="#132e65"></circle><circle r="5" cx="980.95" cy="221.85" fill="#132e65"></circle><circle r="5" cx="1005.64" cy="369.55" fill="#132e65"></circle><circle r="5" cx="946.01" cy="645.22" fill="#132e65"></circle><circle r="5" cx="1127.79" cy="-72.53" fill="#132e65"></circle><circle r="5" cx="1118.88" cy="49.36" fill="#132e65"></circle><circle r="5" cx="1152.06" cy="213.05" fill="#132e65"></circle><circle r="5" cx="1142.4" cy="404.8" fill="#132e65"></circle><circle r="5" cx="1152.17" cy="501.48" fill="#132e65"></circle><circle r="5" cx="1104.86" cy="640.7" fill="#132e65"></circle><circle r="5" cx="1257.13" cy="-40.99" fill="#132e65"></circle><circle r="5" cx="1268.06" cy="46.9" fill="#132e65"></circle><circle r="5" cx="1277.14" cy="259.49" fill="#132e65"></circle><circle r="5" cx="1306.56" cy="338.51" fill="#132e65"></circle><circle r="5" cx="1278" cy="522.81" fill="#132e65"></circle><circle r="5" cx="1304.49" cy="707.41" fill="#132e65"></circle><circle r="5" cx="1410.74" cy="-37.78" fill="#132e65"></circle><circle r="5" cx="1418.39" cy="70.9" fill="#132e65"></circle><circle r="5" cx="1444.93" cy="222.42" fill="#132e65"></circle><circle r="5" cx="1405.04" cy="398.82" fill="#132e65"></circle><circle r="5" cx="1452.67" cy="548.08" fill="#132e65"></circle><circle r="5" cx="1399.87" cy="702.94" fill="#132e65"></circle><circle r="5" cx="1600.48" cy="-64.32" fill="#132e65"></circle><circle r="5" cx="1597.66" cy="46.84" fill="#132e65"></circle><circle r="5" cx="1581.19" cy="240.43" fill="#132e65"></circle><circle r="5" cx="1554.57" cy="411.85" fill="#132e65"></circle><circle r="5" cx="1610.56" cy="498.76" fill="#132e65"></circle><circle r="5" cx="1596.58" cy="699.57" fill="#132e65"></circle><path d="M109.38 705.37L109.38 705.37" stroke="hsl(228.5, 77.2%, 51.5%)" stroke-width="1.5"></path><path d="M109.38 705.37L239.4 643.97" stroke="hsl(228.5, 77.2%, 51.5%)" stroke-width="1.5"></path><path d="M109.38 705.37L-63.09 688.65" stroke="hsl(228.5, 77.2%, 51.5%)" stroke-width="1.5"></path><path d="M109.38 705.37L47.29 529.24" stroke="hsl(228.5, 77.2%, 51.5%)" stroke-width="1.5"></path><path d="M109.38 705.37L204.78 526.97" stroke="hsl(228.5, 77.2%, 51.5%)" stroke-width="1.5"></path><path d="M372.42 685.65L372.42 685.65" stroke="hsl(228.5, 77.2%, 51.5%)" stroke-width="1.5"></path><path d="M372.42 685.65L239.4 643.97" stroke="hsl(228.5, 77.2%, 51.5%)" stroke-width="1.5"></path><path d="M372.42 685.65L546.45 660.52" stroke="hsl(228.5, 77.2%, 51.5%)" stroke-width="1.5"></path><path d="M372.42 685.65L491.64 508.35" stroke="hsl(228.5, 77.2%, 51.5%)" stroke-width="1.5"></path><path d="M372.42 685.65L204.78 526.97" stroke="hsl(228.5, 77.2%, 51.5%)" stroke-width="1.5"></path><path d="M372.42 685.65L109.38 705.37" stroke="hsl(228.5, 77.2%, 51.5%)" stroke-width="1.5"></path><path d="M1143.65 534.93L1143.65 534.93" stroke="hsl(228.5, 77.2%, 51.5%)" stroke-width="1.5"></path><path d="M1143.65 534.93L1288.6 546.85" stroke="hsl(228.5, 77.2%, 51.5%)" stroke-width="1.5"></path><path d="M1143.65 534.93L1256.57 656.62" stroke="hsl(228.5, 77.2%, 51.5%)" stroke-width="1.5"></path><path d="M1143.65 534.93L1249.47 385.73" stroke="hsl(228.5, 77.2%, 51.5%)" stroke-width="1.5"></path><path d="M1143.65 534.93L991.79 644.19" stroke="hsl(228.5, 77.2%, 51.5%)" stroke-width="1.5"></path><path d="M1143.65 534.93L1113.28 340.25" stroke="hsl(228.5, 77.2%, 51.5%)" stroke-width="1.5"></path><path d="M1143.65 534.93L940.37 514.87" stroke="hsl(228.5, 77.2%, 51.5%)" stroke-width="1.5"></path><path d="M1256.57 656.62L1256.57 656.62" stroke="hsl(228.5, 77.2%, 51.5%)" stroke-width="1.5"></path><path d="M1256.57 656.62L1288.6 546.85" stroke="hsl(228.5, 77.2%, 51.5%)" stroke-width="1.5"></path><path d="M1256.57 656.62L1415.84 678.71" stroke="hsl(228.5, 77.2%, 51.5%)" stroke-width="1.5"></path><path d="M1548.69 497.13L1548.69 497.13" stroke="hsl(228.5, 77.2%, 51.5%)" stroke-width="1.5"></path><path d="M1548.69 497.13L1456.57 560.16" stroke="hsl(228.5, 77.2%, 51.5%)" stroke-width="1.5"></path><path d="M1548.69 497.13L1574.58 374.43" stroke="hsl(228.5, 77.2%, 51.5%)" stroke-width="1.5"></path><path d="M1548.69 497.13L1605.66 670.58" stroke="hsl(228.5, 77.2%, 51.5%)" stroke-width="1.5"></path><path d="M1548.69 497.13L1397.55 359.49" stroke="hsl(228.5, 77.2%, 51.5%)" stroke-width="1.5"></path><path d="M1548.69 497.13L1415.84 678.71" stroke="hsl(228.5, 77.2%, 51.5%)" stroke-width="1.5"></path><path d="M1548.69 497.13L1288.6 546.85" stroke="hsl(228.5, 77.2%, 51.5%)" stroke-width="1.5"></path><path d="M-97.54 511.61L-97.54 511.61" stroke="hsl(228.5, 77.2%, 51.5%)" stroke-width="1.5"></path><path d="M-97.54 511.61L47.29 529.24" stroke="hsl(228.5, 77.2%, 51.5%)" stroke-width="1.5"></path><path d="M-97.54 511.61L-63.09 688.65" stroke="hsl(228.5, 77.2%, 51.5%)" stroke-width="1.5"></path><path d="M-97.54 511.61L109.38 705.37" stroke="hsl(228.5, 77.2%, 51.5%)" stroke-width="1.5"></path><path d="M-97.54 511.61L204.78 526.97" stroke="hsl(228.5, 77.2%, 51.5%)" stroke-width="1.5"></path><path d="M-63.09 688.65L-63.09 688.65" stroke="hsl(228.5, 77.2%, 51.5%)" stroke-width="1.5"></path><path d="M-63.09 688.65L47.29 529.24" stroke="hsl(228.5, 77.2%, 51.5%)" stroke-width="1.5"></path><path d="M47.29 529.24L47.29 529.24" stroke="hsl(228.5, 77.2%, 51.5%)" stroke-width="1.5"></path><path d="M47.29 529.24L204.78 526.97" stroke="hsl(228.5, 77.2%, 51.5%)" stroke-width="1.5"></path><path d="M204.78 526.97L204.78 526.97" stroke="hsl(228.5, 77.2%, 51.5%)" stroke-width="1.5"></path><path d="M204.78 526.97L239.4 643.97" stroke="hsl(228.5, 77.2%, 51.5%)" stroke-width="1.5"></path><path d="M204.78 526.97L491.64 508.35" stroke="hsl(228.5, 77.2%, 51.5%)" stroke-width="1.5"></path><path d="M239.4 643.97L239.4 643.97" stroke="hsl(228.5, 77.2%, 51.5%)" stroke-width="1.5"></path><path d="M239.4 643.97L47.29 529.24" stroke="hsl(228.5, 77.2%, 51.5%)" stroke-width="1.5"></path><path d="M239.4 643.97L491.64 508.35" stroke="hsl(228.5, 77.2%, 51.5%)" stroke-width="1.5"></path><path d="M491.64 508.35L491.64 508.35" stroke="hsl(228.5, 77.2%, 51.5%)" stroke-width="1.5"></path><path d="M491.64 508.35L546.45 660.52" stroke="hsl(228.5, 77.2%, 51.5%)" stroke-width="1.5"></path><path d="M491.64 508.35L662.43 498.79" stroke="hsl(228.5, 77.2%, 51.5%)" stroke-width="1.5"></path><path d="M546.45 660.52L546.45 660.52" stroke="hsl(228.5, 77.2%, 51.5%)" stroke-width="1.5"></path><path d="M546.45 660.52L662.43 498.79" stroke="hsl(228.5, 77.2%, 51.5%)" stroke-width="1.5"></path><path d="M546.45 660.52L800.76 676.03" stroke="hsl(228.5, 77.2%, 51.5%)" stroke-width="1.5"></path><path d="M546.45 660.52L657.38 401.05" stroke="hsl(228.5, 77.2%, 51.5%)" stroke-width="1.5"></path><path d="M657.38 401.05L657.38 401.05" stroke="hsl(228.5, 77.2%, 51.5%)" stroke-width="1.5"></path><path d="M657.38 401.05L662.43 498.79" stroke="hsl(228.5, 77.2%, 51.5%)" stroke-width="1.5"></path><path d="M662.43 498.79L662.43 498.79" stroke="hsl(228.5, 77.2%, 51.5%)" stroke-width="1.5"></path><path d="M662.43 498.79L814.56 389.29" stroke="hsl(228.5, 77.2%, 51.5%)" stroke-width="1.5"></path><path d="M662.43 498.79L861.02 489.35" stroke="hsl(228.5, 77.2%, 51.5%)" stroke-width="1.5"></path><path d="M814.56 389.29L814.56 389.29" stroke="hsl(228.5, 77.2%, 51.5%)" stroke-width="1.5"></path><path d="M814.56 389.29L861.02 489.35" stroke="hsl(228.5, 77.2%, 51.5%)" stroke-width="1.5"></path><path d="M814.56 389.29L657.38 401.05" stroke="hsl(228.5, 77.2%, 51.5%)" stroke-width="1.5"></path><path d="M861.02 489.35L861.02 489.35" stroke="hsl(228.5, 77.2%, 51.5%)" stroke-width="1.5"></path><path d="M861.02 489.35L940.37 514.87" stroke="hsl(228.5, 77.2%, 51.5%)" stroke-width="1.5"></path><path d="M861.02 489.35L800.76 676.03" stroke="hsl(228.5, 77.2%, 51.5%)" stroke-width="1.5"></path><path d="M861.02 489.35L991.79 644.19" stroke="hsl(228.5, 77.2%, 51.5%)" stroke-width="1.5"></path><path d="M861.02 489.35L657.38 401.05" stroke="hsl(228.5, 77.2%, 51.5%)" stroke-width="1.5"></path><path d="M800.76 676.03L800.76 676.03" stroke="hsl(228.5, 77.2%, 51.5%)" stroke-width="1.5"></path><path d="M800.76 676.03L991.79 644.19" stroke="hsl(228.5, 77.2%, 51.5%)" stroke-width="1.5"></path><path d="M800.76 676.03L940.37 514.87" stroke="hsl(228.5, 77.2%, 51.5%)" stroke-width="1.5"></path><path d="M800.76 676.03L662.43 498.79" stroke="hsl(228.5, 77.2%, 51.5%)" stroke-width="1.5"></path><path d="M993.19 258.5L993.19 258.5" stroke="hsl(228.5, 77.2%, 51.5%)" stroke-width="1.5"></path><path d="M993.19 258.5L1113.28 340.25" stroke="hsl(228.5, 77.2%, 51.5%)" stroke-width="1.5"></path><path d="M993.19 258.5L814.56 389.29" stroke="hsl(228.5, 77.2%, 51.5%)" stroke-width="1.5"></path><path d="M993.19 258.5L940.37 514.87" stroke="hsl(228.5, 77.2%, 51.5%)" stroke-width="1.5"></path><path d="M993.19 258.5L861.02 489.35" stroke="hsl(228.5, 77.2%, 51.5%)" stroke-width="1.5"></path><path d="M993.19 258.5L1249.47 385.73" stroke="hsl(228.5, 77.2%, 51.5%)" stroke-width="1.5"></path><path d="M940.37 514.87L940.37 514.87" stroke="hsl(228.5, 77.2%, 51.5%)" stroke-width="1.5"></path><path d="M940.37 514.87L991.79 644.19" stroke="hsl(228.5, 77.2%, 51.5%)" stroke-width="1.5"></path><path d="M940.37 514.87L814.56 389.29" stroke="hsl(228.5, 77.2%, 51.5%)" stroke-width="1.5"></path><path d="M940.37 514.87L1113.28 340.25" stroke="hsl(228.5, 77.2%, 51.5%)" stroke-width="1.5"></path><path d="M991.79 644.19L991.79 644.19" stroke="hsl(228.5, 77.2%, 51.5%)" stroke-width="1.5"></path><path d="M1113.28 340.25L1113.28 340.25" stroke="hsl(228.5, 77.2%, 51.5%)" stroke-width="1.5"></path><path d="M1113.28 340.25L1249.47 385.73" stroke="hsl(228.5, 77.2%, 51.5%)" stroke-width="1.5"></path><path d="M1113.28 340.25L1292.94 208.79" stroke="hsl(228.5, 77.2%, 51.5%)" stroke-width="1.5"></path><path d="M1298.66 -64.56L1298.66 -64.56" stroke="hsl(228.5, 77.2%, 51.5%)" stroke-width="1.5"></path><path d="M1298.66 -64.56L1303.17 44.1" stroke="hsl(228.5, 77.2%, 51.5%)" stroke-width="1.5"></path><path d="M1298.66 -64.56L1413.36 -77.23" stroke="hsl(228.5, 77.2%, 51.5%)" stroke-width="1.5"></path><path d="M1298.66 -64.56L1440.02 45.37" stroke="hsl(228.5, 77.2%, 51.5%)" stroke-width="1.5"></path><path d="M1298.66 -64.56L1388.26 193.48" stroke="hsl(228.5, 77.2%, 51.5%)" stroke-width="1.5"></path><path d="M1298.66 -64.56L1292.94 208.79" stroke="hsl(228.5, 77.2%, 51.5%)" stroke-width="1.5"></path><path d="M1298.66 -64.56L1586.11 -112.14" stroke="hsl(228.5, 77.2%, 51.5%)" stroke-width="1.5"></path><path d="M1303.17 44.1L1303.17 44.1" stroke="hsl(228.5, 77.2%, 51.5%)" stroke-width="1.5"></path><path d="M1303.17 44.1L1440.02 45.37" stroke="hsl(228.5, 77.2%, 51.5%)" stroke-width="1.5"></path><path d="M1292.94 208.79L1292.94 208.79" stroke="hsl(228.5, 77.2%, 51.5%)" stroke-width="1.5"></path><path d="M1292.94 208.79L1388.26 193.48" stroke="hsl(228.5, 77.2%, 51.5%)" stroke-width="1.5"></path><path d="M1292.94 208.79L1303.17 44.1" stroke="hsl(228.5, 77.2%, 51.5%)" stroke-width="1.5"></path><path d="M1292.94 208.79L1249.47 385.73" stroke="hsl(228.5, 77.2%, 51.5%)" stroke-width="1.5"></path><path d="M1292.94 208.79L1397.55 359.49" stroke="hsl(228.5, 77.2%, 51.5%)" stroke-width="1.5"></path><path d="M1292.94 208.79L1440.02 45.37" stroke="hsl(228.5, 77.2%, 51.5%)" stroke-width="1.5"></path><path d="M1249.47 385.73L1249.47 385.73" stroke="hsl(228.5, 77.2%, 51.5%)" stroke-width="1.5"></path><path d="M1249.47 385.73L1397.55 359.49" stroke="hsl(228.5, 77.2%, 51.5%)" stroke-width="1.5"></path><path d="M1249.47 385.73L1288.6 546.85" stroke="hsl(228.5, 77.2%, 51.5%)" stroke-width="1.5"></path><path d="M1288.6 546.85L1288.6 546.85" stroke="hsl(228.5, 77.2%, 51.5%)" stroke-width="1.5"></path><path d="M1413.36 -77.23L1413.36 -77.23" stroke="hsl(228.5, 77.2%, 51.5%)" stroke-width="1.5"></path><path d="M1413.36 -77.23L1440.02 45.37" stroke="hsl(228.5, 77.2%, 51.5%)" stroke-width="1.5"></path><path d="M1413.36 -77.23L1303.17 44.1" stroke="hsl(228.5, 77.2%, 51.5%)" stroke-width="1.5"></path><path d="M1440.02 45.37L1440.02 45.37" stroke="hsl(228.5, 77.2%, 51.5%)" stroke-width="1.5"></path><path d="M1440.02 45.37L1561.14 85.91" stroke="hsl(228.5, 77.2%, 51.5%)" stroke-width="1.5"></path><path d="M1440.02 45.37L1388.26 193.48" stroke="hsl(228.5, 77.2%, 51.5%)" stroke-width="1.5"></path><path d="M1388.26 193.48L1388.26 193.48" stroke="hsl(228.5, 77.2%, 51.5%)" stroke-width="1.5"></path><path d="M1388.26 193.48L1397.55 359.49" stroke="hsl(228.5, 77.2%, 51.5%)" stroke-width="1.5"></path><path d="M1388.26 193.48L1554.51 210.24" stroke="hsl(228.5, 77.2%, 51.5%)" stroke-width="1.5"></path><path d="M1388.26 193.48L1303.17 44.1" stroke="hsl(228.5, 77.2%, 51.5%)" stroke-width="1.5"></path><path d="M1397.55 359.49L1397.55 359.49" stroke="hsl(228.5, 77.2%, 51.5%)" stroke-width="1.5"></path><path d="M1397.55 359.49L1574.58 374.43" stroke="hsl(228.5, 77.2%, 51.5%)" stroke-width="1.5"></path><path d="M1456.57 560.16L1456.57 560.16" stroke="hsl(228.5, 77.2%, 51.5%)" stroke-width="1.5"></path><path d="M1456.57 560.16L1415.84 678.71" stroke="hsl(228.5, 77.2%, 51.5%)" stroke-width="1.5"></path><path d="M1456.57 560.16L1288.6 546.85" stroke="hsl(228.5, 77.2%, 51.5%)" stroke-width="1.5"></path><path d="M1456.57 560.16L1605.66 670.58" stroke="hsl(228.5, 77.2%, 51.5%)" stroke-width="1.5"></path><path d="M1456.57 560.16L1397.55 359.49" stroke="hsl(228.5, 77.2%, 51.5%)" stroke-width="1.5"></path><path d="M1415.84 678.71L1415.84 678.71" stroke="hsl(228.5, 77.2%, 51.5%)" stroke-width="1.5"></path><path d="M1415.84 678.71L1288.6 546.85" stroke="hsl(228.5, 77.2%, 51.5%)" stroke-width="1.5"></path><path d="M1415.84 678.71L1605.66 670.58" stroke="hsl(228.5, 77.2%, 51.5%)" stroke-width="1.5"></path><path d="M1586.11 -112.14L1586.11 -112.14" stroke="hsl(228.5, 77.2%, 51.5%)" stroke-width="1.5"></path><path d="M1586.11 -112.14L1413.36 -77.23" stroke="hsl(228.5, 77.2%, 51.5%)" stroke-width="1.5"></path><path d="M1586.11 -112.14L1561.14 85.91" stroke="hsl(228.5, 77.2%, 51.5%)" stroke-width="1.5"></path><path d="M1586.11 -112.14L1440.02 45.37" stroke="hsl(228.5, 77.2%, 51.5%)" stroke-width="1.5"></path><path d="M1586.11 -112.14L1303.17 44.1" stroke="hsl(228.5, 77.2%, 51.5%)" stroke-width="1.5"></path><path d="M1586.11 -112.14L1554.51 210.24" stroke="hsl(228.5, 77.2%, 51.5%)" stroke-width="1.5"></path><path d="M1561.14 85.91L1561.14 85.91" stroke="hsl(228.5, 77.2%, 51.5%)" stroke-width="1.5"></path><path d="M1561.14 85.91L1554.51 210.24" stroke="hsl(228.5, 77.2%, 51.5%)" stroke-width="1.5"></path><path d="M1554.51 210.24L1554.51 210.24" stroke="hsl(228.5, 77.2%, 51.5%)" stroke-width="1.5"></path><path d="M1554.51 210.24L1574.58 374.43" stroke="hsl(228.5, 77.2%, 51.5%)" stroke-width="1.5"></path><path d="M1554.51 210.24L1440.02 45.37" stroke="hsl(228.5, 77.2%, 51.5%)" stroke-width="1.5"></path><path d="M1574.58 374.43L1574.58 374.43" stroke="hsl(228.5, 77.2%, 51.5%)" stroke-width="1.5"></path><path d="M1605.66 670.58L1605.66 670.58" stroke="hsl(228.5, 77.2%, 51.5%)" stroke-width="1.5"></path><circle r="25" cx="109.38" cy="705.37" fill="url(&quot;#SvgjsRadialGradient1003&quot;)"></circle><circle r="25" cx="372.42" cy="685.65" fill="url(&quot;#SvgjsRadialGradient1003&quot;)"></circle><circle r="25" cx="1143.65" cy="534.93" fill="url(&quot;#SvgjsRadialGradient1003&quot;)"></circle><circle r="25" cx="1256.57" cy="656.62" fill="url(&quot;#SvgjsRadialGradient1003&quot;)"></circle><circle r="25" cx="1548.69" cy="497.13" fill="url(&quot;#SvgjsRadialGradient1003&quot;)"></circle><circle r="5" cx="-97.54" cy="511.61" fill="#8b9ad9"></circle><circle r="5" cx="-63.09" cy="688.65" fill="#8b9ad9"></circle><circle r="5" cx="47.29" cy="529.24" fill="#8b9ad9"></circle><circle r="5" cx="204.78" cy="526.97" fill="#8b9ad9"></circle><circle r="5" cx="239.4" cy="643.97" fill="#8b9ad9"></circle><circle r="5" cx="491.64" cy="508.35" fill="#8b9ad9"></circle><circle r="5" cx="546.45" cy="660.52" fill="#8b9ad9"></circle><circle r="5" cx="657.38" cy="401.05" fill="#8b9ad9"></circle><circle r="5" cx="662.43" cy="498.79" fill="#8b9ad9"></circle><circle r="5" cx="814.56" cy="389.29" fill="#8b9ad9"></circle><circle r="5" cx="861.02" cy="489.35" fill="#8b9ad9"></circle><circle r="5" cx="800.76" cy="676.03" fill="#8b9ad9"></circle><circle r="5" cx="993.19" cy="258.5" fill="#8b9ad9"></circle><circle r="5" cx="940.37" cy="514.87" fill="#8b9ad9"></circle><circle r="5" cx="991.79" cy="644.19" fill="#8b9ad9"></circle><circle r="5" cx="1113.28" cy="340.25" fill="#8b9ad9"></circle><circle r="5" cx="1298.66" cy="-64.56" fill="#8b9ad9"></circle><circle r="5" cx="1303.17" cy="44.1" fill="#8b9ad9"></circle><circle r="5" cx="1292.94" cy="208.79" fill="#8b9ad9"></circle><circle r="5" cx="1249.47" cy="385.73" fill="#8b9ad9"></circle><circle r="5" cx="1288.6" cy="546.85" fill="#8b9ad9"></circle><circle r="5" cx="1413.36" cy="-77.23" fill="#8b9ad9"></circle><circle r="5" cx="1440.02" cy="45.37" fill="#8b9ad9"></circle><circle r="5" cx="1388.26" cy="193.48" fill="#8b9ad9"></circle><circle r="5" cx="1397.55" cy="359.49" fill="#8b9ad9"></circle><circle r="5" cx="1456.57" cy="560.16" fill="#8b9ad9"></circle><circle r="5" cx="1415.84" cy="678.71" fill="#8b9ad9"></circle><circle r="5" cx="1586.11" cy="-112.14" fill="#8b9ad9"></circle><circle r="5" cx="1561.14" cy="85.91" fill="#8b9ad9"></circle><circle r="5" cx="1554.51" cy="210.24" fill="#8b9ad9"></circle><circle r="5" cx="1574.58" cy="374.43" fill="#8b9ad9"></circle><circle r="5" cx="1605.66" cy="670.58" fill="#8b9ad9"></circle></g><defs><mask id="SvgjsMask1002"><rect width="1440" height="560" fill="#ffffff"></rect></mask><radialGradient id="SvgjsRadialGradient1003"><stop stop-color="#ffffff" offset="0.1"></stop><stop stop-color="#1735b3" offset="0.2"></stop><stop stop-color="rgba(23, 53, 179, 0)" offset="1"></stop></radialGradient></defs></svg>