<svg xmlns="http://www.w3.org/2000/svg" version="1.1" xmlns:xlink="http://www.w3.org/1999/xlink" xmlns:svgjs="http://svgjs.dev/svgjs" width="1440" height="560" preserveAspectRatio="none" viewBox="0 0 1440 560"><g mask="url(&quot;#SvgjsMask1004&quot;)" fill="none"><g transform="translate(0, 0)" stroke-linecap="round"><path d="M260 157.5 L260 402.5" stroke-width="15" stroke="rgba(51, 194, 246, 1)"></path><path d="M280 151.45 L280 408.55" stroke-width="15" stroke="rgba(51, 194, 246, 1)"></path><path d="M300 186.06 L300 373.94" stroke-width="15" stroke="rgba(51, 194, 246, 1)"></path><path d="M320 115.49 L320 444.51" stroke-width="15" stroke="rgba(51, 194, 246, 1)"></path><path d="M340 246.61 L340 313.39" stroke-width="15" stroke="rgba(24, 116, 228, 1)"></path><path d="M360 257.1 L360 302.9" stroke-width="15" stroke="rgba(24, 116, 228, 1)"></path><path d="M380 184.29 L380 375.71" stroke-width="15" stroke="rgba(51, 194, 246, 1)"></path><path d="M400 172.61 L400 387.39" stroke-width="15" stroke="rgba(24, 116, 228, 1)"></path><path d="M420 143.46 L420 416.54" stroke-width="15" stroke="rgba(24, 116, 228, 1)"></path><path d="M440 196.6 L440 363.4" stroke-width="15" stroke="rgba(24, 116, 228, 1)"></path><path d="M460 116.44 L460 443.56" stroke-width="15" stroke="rgba(51, 194, 246, 1)"></path><path d="M480 195.71 L480 364.29" stroke-width="15" stroke="rgba(51, 194, 246, 1)"></path><path d="M500 194.61 L500 365.39" stroke-width="15" stroke="rgba(51, 194, 246, 1)"></path><path d="M520 232.06 L520 327.94" stroke-width="15" stroke="rgba(24, 116, 228, 1)"></path><path d="M540 230.47 L540 329.52" stroke-width="15" stroke="rgba(51, 194, 246, 1)"></path><path d="M560 159.06 L560 400.94" stroke-width="15" stroke="rgba(24, 116, 228, 1)"></path><path d="M580 107.67 L580 452.33" stroke-width="15" stroke="rgba(24, 116, 228, 1)"></path><path d="M600 159.91 L600 400.09" stroke-width="15" stroke="rgba(24, 116, 228, 1)"></path><path d="M620 151.95 L620 408.05" stroke-width="15" stroke="rgba(24, 116, 228, 1)"></path><path d="M640 224.69 L640 335.31" stroke-width="15" stroke="rgba(24, 116, 228, 1)"></path><path d="M660 122.72 L660 437.28" stroke-width="15" stroke="rgba(51, 194, 246, 1)"></path><path d="M680 182.78 L680 377.23" stroke-width="15" stroke="rgba(51, 194, 246, 1)"></path><path d="M700 105.63 L700 454.37" stroke-width="15" stroke="rgba(24, 116, 228, 1)"></path><path d="M720 142.32 L720 417.68" stroke-width="15" stroke="rgba(24, 116, 228, 1)"></path><path d="M740 171.91 L740 388.09" stroke-width="15" stroke="rgba(51, 194, 246, 1)"></path><path d="M760 162.33 L760 397.67" stroke-width="15" stroke="rgba(24, 116, 228, 1)"></path><path d="M780 210.59 L780 349.4" stroke-width="15" stroke="rgba(24, 116, 228, 1)"></path><path d="M800 232.38 L800 327.62" stroke-width="15" stroke="rgba(24, 116, 228, 1)"></path><path d="M820 151.24 L820 408.76" stroke-width="15" stroke="rgba(24, 116, 228, 1)"></path><path d="M840 229.81 L840 330.19" stroke-width="15" stroke="rgba(24, 116, 228, 1)"></path><path d="M860 212.66 L860 347.34" stroke-width="15" stroke="rgba(24, 116, 228, 1)"></path><path d="M880 118.22 L880 441.77" stroke-width="15" stroke="rgba(24, 116, 228, 1)"></path><path d="M900 159.28 L900 400.72" stroke-width="15" stroke="rgba(24, 116, 228, 1)"></path><path d="M920 246.32 L920 313.68" stroke-width="15" stroke="rgba(51, 194, 246, 1)"></path><path d="M940 175.31 L940 384.69" stroke-width="15" stroke="rgba(24, 116, 228, 1)"></path><path d="M960 135.32 L960 424.68" stroke-width="15" stroke="rgba(24, 116, 228, 1)"></path><path d="M980 145.24 L980 414.76" stroke-width="15" stroke="rgba(51, 194, 246, 1)"></path><path d="M1000 250.85 L1000 309.14" stroke-width="15" stroke="rgba(24, 116, 228, 1)"></path><path d="M1020 165.82 L1020 394.18" stroke-width="15" stroke="rgba(51, 194, 246, 1)"></path><path d="M1040 116.1 L1040 443.9" stroke-width="15" stroke="rgba(24, 116, 228, 1)"></path><path d="M1060 173.78 L1060 386.22" stroke-width="15" stroke="rgba(51, 194, 246, 1)"></path><path d="M1080 219.49 L1080 340.51" stroke-width="15" stroke="rgba(24, 116, 228, 1)"></path><path d="M1100 125.02 L1100 434.98" stroke-width="15" stroke="rgba(24, 116, 228, 1)"></path><path d="M1120 249.94 L1120 310.06" stroke-width="15" stroke="rgba(51, 194, 246, 1)"></path><path d="M1140 119.84 L1140 440.15" stroke-width="15" stroke="rgba(24, 116, 228, 1)"></path><path d="M1160 251.75 L1160 308.25" stroke-width="15" stroke="rgba(51, 194, 246, 1)"></path><path d="M1180 225.81 L1180 334.19" stroke-width="15" stroke="rgba(51, 194, 246, 1)"></path></g></g><defs><mask id="SvgjsMask1004"><rect width="1440" height="560" fill="#ffffff"></rect></mask></defs></svg>