<svg viewBox="204.8 362.0864 598.016 337.92" version="1.1" xmlns="http://www.w3.org/2000/svg" style="max-height: 500px" width="598.016" height="337.92">
<path d="M 617.40 479.81&#10;  C 621.07 489.52 624.76 501.12 616.78 509.71&#10;  Q 581.61 497.17 543.51 503.97&#10;  Q 538.23 504.91 537.60 505.12&#10;  C 534.77 506.10 532.09 505.96 529.02 507.01&#10;  Q 526.82 507.76 524.42 508.14&#10;  C 522.43 508.45 520.27 509.64 518.26 509.90&#10;  Q 516.32 510.15 509.19 512.26&#10;  Q 504.92 513.52 501.26 514.45&#10;  Q 497.25 515.47 493.30 516.68&#10;  Q 490.83 517.43 487.33 518.10&#10;  C 484.34 518.67 481.92 519.68 479.33 519.93&#10;  C 475.97 520.25 471.28 521.56 467.29 521.86&#10;  Q 452.46 522.97 443.55 521.82&#10;  Q 420.04 518.80 401.30 503.71&#10;  Q 375.87 483.22 374.19 449.35&#10;  Q 374.36 448.60 374.16 447.95&#10;  Q 374.35 443.60 374.88 439.23&#10;  Q 377.27 419.54 389.07 403.80&#10;  Q 393.11 398.41 401.08 391.41&#10;  Q 408.13 385.21 415.25 381.76&#10;  Q 429.65 374.80 443.30 372.59&#10;  Q 455.48 370.62 471.78 372.12&#10;  Q 474.45 372.37 476.32 372.97&#10;  C 478.16 373.57 480.32 373.94 482.14 374.93&#10;  Q 488.54 378.39 489.84 385.53&#10;  Q 490.66 390.08 487.14 395.45&#10;  C 481.20 404.51 471.64 401.60 462.08 400.43&#10;  C 455.21 399.59 449.87 400.89 442.03 402.32&#10;  Q 437.91 403.07 430.74 406.76&#10;  Q 415.11 414.78 407.75 430.79&#10;  C 405.94 434.73 405.11 439.48 404.41 443.19&#10;  Q 403.79 446.47 404.20 450.38&#10;  C 407.34 480.49 434.33 495.35 462.24 493.10&#10;  Q 464.50 492.91 471.22 492.05&#10;  Q 474.70 491.60 477.00 490.94&#10;  C 479.50 490.22 482.12 489.99 484.69 489.30&#10;  Q 498.03 485.68 498.88 485.45&#10;  Q 499.49 485.29 513.15 481.48&#10;  Q 518.71 479.93 529.23 477.63&#10;  Q 534.45 476.49 540.54 475.39&#10;  Q 546.81 474.26 551.91 473.81&#10;  Q 574.41 471.80 594.57 474.45&#10;  Q 605.36 475.88 617.40 479.81&#10;  Z" fill="#33c5f6"/>
<path d="M 626.64 561.57&#10;  Q 637.34 571.98 643.20 585.32&#10;  Q 646.17 592.07 647.50 600.49&#10;  Q 648.38 606.04 648.02 617.66&#10;  C 647.90 621.23 646.85 624.31 646.23 627.89&#10;  Q 645.85 630.10 645.26 631.89&#10;  Q 636.61 657.97 613.99 673.20&#10;  Q 604.13 679.84 592.11 683.33&#10;  Q 572.51 689.03 550.84 687.63&#10;  Q 544.15 687.20 539.88 684.56&#10;  C 527.84 677.13 531.10 660.78 544.86 658.53&#10;  Q 547.12 658.16 552.18 658.67&#10;  Q 565.53 660.00 578.12 657.29&#10;  Q 586.86 655.41 594.36 651.39&#10;  Q 612.04 641.90 617.79 623.42&#10;  Q 620.07 616.08 619.15 607.07&#10;  C 617.47 590.56 606.04 577.25 590.78 571.07&#10;  Q 578.29 566.01 566.59 566.11&#10;  Q 552.06 566.23 543.22 568.71&#10;  C 540.94 569.35 536.88 570.00 534.67 570.63&#10;  Q 516.56 575.80 510.93 577.26&#10;  Q 506.97 578.29 500.13 580.28&#10;  C 494.57 581.90 490.11 582.79 483.40 584.30&#10;  Q 477.65 585.59 471.74 586.37&#10;  Q 467.85 586.89 459.98 587.90&#10;  Q 456.71 588.32 436.67 587.94&#10;  C 431.76 587.85 427.77 586.84 423.13 586.22&#10;  Q 416.80 585.38 413.70 584.58&#10;  Q 411.34 583.97 404.28 581.89&#10;  Q 376.74 573.78 353.52 556.88&#10;  Q 347.21 552.28 338.54 544.40&#10;  C 326.04 533.05 318.25 524.54 305.39 511.07&#10;  Q 294.77 499.94 283.35 491.42&#10;  Q 271.34 482.46 262.49 478.86&#10;  Q 253.08 475.03 250.26 474.49&#10;  C 240.60 472.61 233.00 471.97 227.75 464.96&#10;  Q 226.16 462.83 225.94 460.11&#10;  Q 225.62 456.22 226.18 454.69&#10;  Q 230.77 442.25 244.30 444.05&#10;  Q 254.48 445.40 267.06 449.98&#10;  C 270.36 451.19 272.64 452.51 276.97 454.57&#10;  C 291.79 461.61 305.60 473.06 317.77 484.79&#10;  Q 327.70 494.36 344.82 512.94&#10;  Q 353.20 522.02 366.18 531.94&#10;  Q 396.48 555.09 434.71 559.11&#10;  Q 447.28 560.43 456.25 559.71&#10;  Q 467.99 558.77 475.21 557.36&#10;  Q 480.21 556.39 480.29 556.38&#10;  Q 482.69 556.03 486.49 554.93&#10;  C 489.36 554.11 492.04 553.91 494.97 552.96&#10;  Q 496.46 552.47 498.32 551.99&#10;  Q 510.79 548.79 523.17 545.25&#10;  Q 524.70 544.81 528.75 543.87&#10;  C 531.61 543.21 533.67 542.29 536.22 542.03&#10;  C 539.40 541.70 543.04 540.42 546.20 540.09&#10;  C 551.62 539.52 558.62 538.14 564.64 538.12&#10;  Q 586.63 538.04 605.71 547.19&#10;  Q 617.83 553.00 626.64 561.57&#10;  Z" fill="#1375e8"/>
<path d="M 374.16 447.95&#10;  Q 374.36 448.60 374.19 449.35&#10;  Q 374.03 448.67 374.16 447.95&#10;  Z" fill="#1375e8"/>
<path d="M 617.40 479.81&#10;  Q 632.89 484.94 642.95 490.06&#10;  Q 671.98 504.84 694.17 528.53&#10;  Q 696.85 531.39 720.73 556.91&#10;  Q 725.99 562.53 736.59 570.83&#10;  Q 755.77 585.85 780.13 589.78&#10;  Q 786.29 590.77 788.42 592.08&#10;  C 793.40 595.16 796.69 600.52 795.23 606.75&#10;  Q 793.97 612.07 790.37 615.67&#10;  C 787.25 618.79 781.89 619.82 777.96 619.14&#10;  Q 755.99 615.34 737.75 605.21&#10;  Q 724.61 597.91 714.54 589.27&#10;  Q 703.49 579.78 693.54 569.27&#10;  Q 684.40 559.62 674.02 548.48&#10;  Q 666.56 540.46 655.84 531.94&#10;  Q 638.01 517.76 616.78 509.71&#10;  C 624.76 501.12 621.07 489.52 617.40 479.81&#10;  Z" fill="#2697f0"/>
</svg>