<svg xmlns="http://www.w3.org/2000/svg" version="1.1" xmlns:xlink="http://www.w3.org/1999/xlink" xmlns:svgjs="http://svgjs.dev/svgjs" width="100px" height="100px"><svg xmlns="http://www.w3.org/2000/svg" version="1.1" viewBox="225.78 371.47 569.85 316.44" height="100px" width="100px" transform="rotate(0) scale(1, 1)">
<path fill="#4a53ff" d="   M 668.21 505.46   C 668.68 517.15 667.94 527.28 662.90 537.79   Q 642.62 519.63 619.53 510.75   Q 595.23 501.42 570.00 501.45   Q 555.45 501.48 539.61 504.60   C 538.03 504.92 536.11 505.65 534.06 505.89   C 530.46 506.32 527.80 507.69 524.41 508.13   C 522.51 508.38 520.28 509.63 518.26 509.90   Q 516.29 510.17 509.18 512.26   Q 504.85 513.54 501.27 514.45   Q 497.29 515.46 493.36 516.66   Q 489.89 517.72 487.30 518.17   C 484.20 518.71 481.80 519.73 479.11 519.96   C 475.96 520.22 471.25 521.56 467.37 521.85   Q 452.30 523.00 443.12 521.77   Q 419.87 518.66 401.30 503.71   Q 375.88 483.24 374.18 449.35   Q 374.39 448.56 374.12 447.93   Q 374.90 438.22 376.36 431.52   Q 379.77 415.92 389.06 403.79   Q 393.28 398.27 401.17 391.33   Q 408.13 385.21 415.47 381.66   Q 431.34 374.00 446.53 372.14   Q 457.38 370.82 471.27 372.10   Q 474.72 372.42 476.07 372.90   C 478.03 373.58 480.30 373.90 482.25 374.97   C 487.02 377.59 490.97 383.46 489.78 388.99   Q 488.93 392.95 487.09 395.62   Q 482.05 402.91 472.73 401.76   Q 461.09 400.32 459.74 400.27   C 454.88 400.07 451.21 400.52 445.44 401.67   Q 440.29 402.69 436.84 403.98   C 422.98 409.16 412.14 419.48 406.68 433.33   C 406.08 434.83 405.93 436.54 405.46 438.20   C 404.02 443.29 403.72 447.98 404.56 453.27   C 409.09 481.83 435.78 495.25 462.47 493.10   Q 472.74 492.27 487.85 488.44   Q 493.67 486.97 509.92 482.51   Q 517.77 480.35 524.96 478.51   Q 529.04 477.46 539.21 475.63   Q 547.79 474.10 553.59 473.63   Q 572.07 472.15 590.56 473.95   Q 593.68 474.26 598.18 475.10   C 602.15 475.85 605.03 476.26 608.27 477.14   Q 628.29 482.60 645.22 491.27   Q 656.62 497.10 668.21 505.46   Z"></path>
<path fill="#5cfffc" d="   M 626.68 561.57   Q 638.01 572.60 643.93 587.06   Q 646.17 592.54 647.56 600.67   Q 648.36 605.39 648.02 617.08   Q 647.93 620.03 647.17 623.43   C 646.45 626.63 646.16 629.25 645.30 631.75   Q 642.02 641.39 637.90 648.17   Q 623.41 672.00 596.68 681.91   Q 594.73 682.64 588.38 684.34   Q 583.49 685.66 579.93 686.20   Q 564.08 688.63 550.32 687.61   C 541.85 686.98 534.02 682.74 532.56 673.95   Q 531.54 667.84 536.56 662.55   Q 539.12 659.84 544.35 658.64   Q 546.49 658.15 552.75 658.72   Q 565.59 659.88 578.14 657.31   Q 588.17 655.26 597.07 649.81   Q 612.63 640.29 617.79 623.41   Q 620.03 616.06 619.17 607.21   C 617.56 590.66 606.03 577.23 590.78 571.08   Q 578.15 565.98 566.34 566.11   Q 551.93 566.26 543.21 568.71   C 540.94 569.35 536.86 570.01 534.67 570.63   Q 512.94 576.84 510.95 577.33   Q 506.56 578.39 500.19 580.27   C 494.62 581.91 487.87 583.28 483.19 584.33   Q 477.74 585.56 471.91 586.34   Q 466.24 587.09 460.56 587.86   Q 457.04 588.33 436.67 587.94   C 431.72 587.85 427.81 586.83 423.13 586.23   Q 417.09 585.45 413.70 584.57   Q 411.35 583.97 404.27 581.91   Q 377.01 573.98 353.52 556.88   Q 347.10 552.20 338.74 544.61   C 325.93 532.97 317.10 523.30 304.49 510.14   Q 294.28 499.50 283.49 491.52   Q 271.10 482.37 262.49 478.87   Q 253.05 475.03 250.26 474.49   Q 240.35 472.56 237.87 471.85   C 232.62 470.35 226.09 465.70 225.81 459.72   Q 225.62 455.48 226.77 453.06   Q 230.11 446.01 236.56 444.35   Q 240.70 443.28 246.96 444.41   Q 256.62 446.16 266.69 449.86   C 270.26 451.17 273.21 452.77 277.25 454.70   C 291.98 461.74 305.45 472.92 317.77 484.79   Q 327.07 493.77 344.71 512.81   Q 353.34 522.13 366.31 532.04   Q 396.35 554.99 434.49 559.08   Q 447.06 560.43 456.25 559.70   Q 467.89 558.78 475.21 557.36   Q 478.71 556.69 480.29 556.43   Q 482.62 556.04 486.49 554.94   C 489.38 554.11 492.04 553.91 494.97 552.96   Q 496.46 552.47 498.32 551.99   Q 510.79 548.78 523.17 545.25   Q 524.69 544.82 528.75 543.88   C 531.61 543.21 533.67 542.29 536.22 542.03   C 539.40 541.70 543.04 540.42 546.20 540.09   C 551.62 539.52 558.57 538.16 564.63 538.13   Q 586.83 538.05 605.72 547.19   Q 618.04 553.16 626.68 561.57   Z"></path>
<path fill="#5cfffc" d="   M 374.12 447.93   Q 374.39 448.56 374.18 449.35   L 374.12 447.93   Z"></path>
<path fill="#91afff" d="   M 668.21 505.46   Q 686.04 518.95 702.40 537.35   Q 705.34 540.65 719.46 555.49   Q 730.30 566.88 743.15 575.52   Q 759.31 586.38 780.21 589.77   Q 785.72 590.66 787.93 591.86   C 792.45 594.31 796.40 599.67 795.50 605.24   Q 794.35 612.34 789.49 616.45   C 785.89 619.51 780.30 619.65 775.74 618.78   Q 754.41 614.70 735.83 604.16   C 725.37 598.23 715.87 590.91 706.63 582.21   C 695.20 571.44 684.57 559.87 673.94 548.31   Q 670.40 544.47 662.90 537.79   C 667.94 527.28 668.68 517.15 668.21 505.46   Z"></path>
</svg><style>@media (prefers-color-scheme: light) { :root { filter: none; } }
@media (prefers-color-scheme: dark) { :root { filter: none; } }
</style></svg>